<svg width="346" height="300" viewBox="0 0 346 300" fill="none" xmlns="http://www.w3.org/2000/svg">
<g clip-path="url(#clip0_6_162)">
<path fill-rule="evenodd" clip-rule="evenodd" d="M125.158 92.7977C144.616 85.4568 169.01 88.2624 191.571 101.558C229.462 123.886 251.787 181.32 222.502 222.55C218.544 228.123 154.772 278.496 146.408 279.874C129.994 282.58 102.99 278.969 85.7503 267.866C49.5368 244.557 36.6477 201.09 51.2011 168.374C65.7544 135.657 121.946 94.0119 125.158 92.7977Z" fill="#6D445C"/>
<path d="M134.747 283.325C118.709 283.325 98.6564 279.247 84.359 270.043C66.6653 258.654 53.3941 241.758 46.992 222.465C40.7464 203.64 41.405 184.059 48.8479 167.327C63.7226 133.889 120.363 91.8455 124.249 90.3791C144.962 82.5663 169.978 85.8292 192.888 99.3308C214.343 111.974 231.08 135.791 236.568 161.488C241.409 184.161 237.166 206.379 224.618 224.048C220.526 229.809 156.433 280.845 146.836 282.426C143.244 283.018 139.146 283.325 134.747 283.325ZM126.135 95.1921C124.416 96.0509 110.162 106.23 93.6456 121.167C79.4477 134.007 60.9716 152.804 53.5773 169.424C38.8602 202.508 53.2995 243.894 87.1647 265.691C103.672 276.319 130.043 279.947 146.001 277.318C148.549 276.9 161.448 268.517 184.544 250.732C203.77 235.928 218.871 223.208 220.408 221.048C232.108 204.574 236.055 183.803 231.518 162.562C226.321 138.236 210.516 115.712 190.269 103.781C168.729 91.0947 145.357 87.9652 126.128 95.197L126.135 95.1921Z" fill="#620504"/>
<g opacity="0.3">
<path fill-rule="evenodd" clip-rule="evenodd" d="M130.383 91.1056C148.88 86.0305 170.99 89.4269 191.575 101.558C210.798 112.886 226.01 133.251 232.514 155.948C202.829 103.468 166.498 87.6098 129.774 99.8585C129.509 101.468 128.768 103.767 127.552 106.755C99.3511 127.867 92.8212 156.116 107.962 191.504C99.3503 182.36 92.5915 164.623 94.1053 147.628L94.1126 147.58C94.1648 146.994 94.2254 146.41 94.2982 145.828C94.7931 139.844 93.27 138.472 89.7289 141.714L88.3946 143.048C77.0533 154.386 58.6269 172.626 55.4259 175.596C49.8583 185.178 50.3313 194.724 49.9675 204.241C50.1069 213.473 51.6656 223.494 54.92 234.46C44.4484 214.592 42.4021 191.854 49.6023 172.34C77.1758 138.839 104.445 112.099 130.387 91.1008" fill="white"/>
</g>
<path d="M134.747 283.325C118.709 283.325 98.6564 279.247 84.359 270.043C66.6641 258.654 53.3941 241.758 46.992 222.465C40.7452 203.64 41.4038 184.057 48.8467 167.327C63.7287 133.875 120.358 91.848 124.249 90.3791C144.959 82.5663 169.978 85.8292 192.888 99.3308C214.343 111.974 231.08 135.791 236.568 161.488C241.409 184.161 237.166 206.379 224.618 224.048C220.526 229.807 156.434 280.843 146.836 282.426C143.244 283.017 139.146 283.325 134.747 283.325ZM126.128 95.197C124.41 96.0546 110.157 106.235 93.6383 121.172C79.4465 134.014 60.9643 152.809 53.57 169.429C38.8529 202.513 53.2922 243.899 87.1586 265.696C103.667 276.324 130.036 279.953 145.995 277.323C148.543 276.905 161.441 268.521 184.538 250.736C203.763 235.938 218.865 223.212 220.402 221.053C232.102 204.579 236.049 183.808 231.512 162.567C226.315 138.241 210.51 115.717 190.263 103.786C168.727 91.0947 145.356 87.9664 126.128 95.197Z" fill="#620504"/>
<path fill-rule="evenodd" clip-rule="evenodd" d="M105.871 129.855C111.087 118.503 119.605 110.314 129.905 105.606C131.677 92.0202 143.037 93.3739 139.643 102.452C152.513 98.3665 169.021 102.088 181.834 108.317C182.575 107.154 183.737 106.322 185.076 105.995C186.416 105.668 187.83 105.87 189.024 106.561C190.218 107.251 191.099 108.375 191.484 109.7C191.869 111.024 191.727 112.446 191.089 113.668C214.136 129.34 227.799 155.716 227.657 180.444C229.043 180.783 230.261 181.611 231.086 182.776C231.912 183.941 232.289 185.364 232.15 186.785C232.01 188.206 231.363 189.528 230.327 190.51C229.291 191.492 227.935 192.068 226.509 192.131C225.661 196.528 224.291 200.808 222.428 204.879C208.505 235.169 171.127 242.931 138.941 222.212C121.787 211.174 109.57 194.262 104.007 176.291C102.979 176.29 101.98 175.945 101.171 175.311C100.361 174.677 99.7872 173.79 99.5405 172.792C99.2937 171.794 99.3883 170.742 99.8091 169.804C100.23 168.865 100.953 168.095 101.862 167.615C99.4424 154.593 100.56 141.419 105.871 129.855Z" fill="white"/>
<path d="M176.246 236.399C163.308 236.399 149.817 232.29 137.541 224.39C121.049 213.766 108.176 197.148 102.032 178.599C100.816 178.25 99.7131 177.587 98.8351 176.676C97.9571 175.765 97.335 174.639 97.0315 173.41C96.7281 172.182 96.7541 170.895 97.1069 169.68C97.4597 168.465 98.1268 167.365 99.0409 166.49C96.8212 153.016 98.3629 140.008 103.529 128.776C108.64 117.657 116.937 109.065 127.574 103.852C128.609 98.3811 131.311 94.4728 134.957 93.2732C137.262 92.5151 139.567 93.0306 141.129 94.6475C142.206 95.7671 142.787 97.2578 142.856 98.973C153.902 96.8066 167.801 99.0191 181.196 105.159C182.446 104.094 183.995 103.442 185.63 103.293C187.265 103.145 188.906 103.507 190.327 104.329C191.749 105.152 192.88 106.394 193.566 107.886C194.251 109.378 194.458 111.046 194.157 112.66C215.771 128.116 229.733 153.659 230.232 178.684C231.728 179.473 232.954 180.69 233.756 182.18C234.557 183.669 234.896 185.364 234.73 187.047C234.564 188.73 233.901 190.325 232.824 191.63C231.747 192.934 230.306 193.888 228.685 194.37C227.791 198.361 226.482 202.248 224.78 205.966C218.375 219.9 206.836 229.912 192.291 234.158C187.076 235.662 181.673 236.417 176.246 236.399ZM108.223 130.936C103.306 141.636 101.985 154.156 104.405 167.144C104.506 167.686 104.431 168.246 104.19 168.742C103.95 169.239 103.558 169.646 103.07 169.903C102.671 170.113 102.353 170.45 102.168 170.861C101.982 171.273 101.94 171.735 102.048 172.173C102.156 172.611 102.408 173 102.763 173.278C103.119 173.556 103.557 173.707 104.008 173.707C104.56 173.707 105.098 173.883 105.542 174.211C105.986 174.538 106.314 174.999 106.478 175.527C112.057 193.551 124.398 209.775 140.34 220.043C156.566 230.489 174.97 233.825 190.838 229.192C203.924 225.373 214.308 216.357 220.078 203.805C221.854 199.919 223.161 195.835 223.972 191.64C224.084 191.066 224.387 190.547 224.832 190.168C225.277 189.789 225.837 189.571 226.421 189.551C227.218 189.51 227.974 189.184 228.553 188.634C229.132 188.084 229.495 187.345 229.576 186.551C229.658 185.756 229.453 184.959 228.998 184.303C228.543 183.646 227.869 183.174 227.096 182.972C226.52 182.844 226.005 182.522 225.636 182.061C225.268 181.599 225.068 181.026 225.071 180.435C225.211 155.911 211.302 130.546 189.636 115.812C189.104 115.45 188.726 114.903 188.576 114.277C188.425 113.652 188.514 112.993 188.823 112.429C189.141 111.795 189.204 111.063 188.997 110.384C188.791 109.705 188.331 109.132 187.714 108.783C187.097 108.433 186.369 108.335 185.681 108.507C184.992 108.679 184.397 109.11 184.017 109.709C183.677 110.244 183.151 110.636 182.541 110.808C181.93 110.981 181.278 110.923 180.707 110.645C169.565 105.233 153.13 100.888 140.428 104.919C139.966 105.065 139.472 105.079 139.002 104.958C138.533 104.837 138.107 104.587 137.773 104.235C137.439 103.884 137.21 103.446 137.113 102.971C137.016 102.496 137.055 102.004 137.224 101.549C137.968 99.5589 137.662 98.5096 137.397 98.2343C137.188 98.016 136.749 98.13 136.57 98.1882C135.372 98.5824 133.161 100.66 132.472 105.943C132.415 106.378 132.249 106.791 131.988 107.144C131.728 107.497 131.382 107.777 130.984 107.96C120.881 112.578 113.011 120.524 108.223 130.94V130.936Z" fill="#620504"/>
<path fill-rule="evenodd" clip-rule="evenodd" d="M138.2 143.135C145.428 125.879 165.871 120.992 183.86 132.218C201.848 143.444 210.572 166.546 203.344 183.798C196.116 201.05 175.671 205.941 157.682 194.715C139.694 183.489 130.969 160.395 138.2 143.135Z" fill="#F64808"/>
<path d="M177.575 203.334C170.484 203.334 163.095 201.151 156.313 196.911C137.324 185.057 128.128 160.486 135.814 142.139C139.302 133.809 145.836 127.755 154.21 125.091C163.939 121.998 175.243 123.799 185.228 130.034C204.217 141.887 213.413 166.457 205.727 184.805C202.239 193.134 195.706 199.189 187.332 201.853C184.176 202.846 180.884 203.345 177.575 203.334ZM163.973 128.776C161.194 128.765 158.429 129.184 155.778 130.017C148.874 132.212 143.474 137.227 140.584 144.141C133.834 160.25 142.119 181.958 159.052 192.529C167.749 197.958 177.489 199.564 185.764 196.928C192.67 194.733 198.065 189.718 200.959 182.81C207.708 166.7 199.423 144.993 182.49 134.424C176.538 130.701 170.098 128.776 163.973 128.776Z" fill="#620504"/>
<path d="M136.551 166.866C136.176 166.866 135.807 166.772 135.477 166.594C135.147 166.416 134.866 166.158 134.661 165.844C134.455 165.531 134.331 165.171 134.298 164.797C134.266 164.424 134.328 164.048 134.477 163.704C139.437 152.273 149.346 146.946 163.147 148.299C170.643 149.039 172.424 145.414 174.889 140.404C176.652 136.818 178.649 132.753 183.137 130.416C183.668 130.144 184.285 130.094 184.853 130.275C185.422 130.457 185.896 130.855 186.171 131.384C186.447 131.913 186.503 132.53 186.327 133.1C186.15 133.67 185.756 134.147 185.229 134.427C182.061 136.079 180.549 139.151 178.951 142.401C176.444 147.496 173.321 153.845 162.707 152.801C150.886 151.639 142.791 155.913 138.63 165.499C138.455 165.905 138.165 166.251 137.795 166.494C137.426 166.737 136.993 166.866 136.551 166.866Z" fill="white"/>
<path d="M146.817 187.554C146.455 187.555 146.098 187.468 145.777 187.302C145.455 187.135 145.178 186.894 144.969 186.599C144.761 186.303 144.626 185.962 144.576 185.604C144.526 185.245 144.563 184.88 144.684 184.539C149.599 170.609 160.174 164.513 175.265 166.911C182.442 168.049 184.362 164.662 187.03 159.97C189.085 156.352 191.415 152.249 196.53 150.372C198.034 149.82 199.616 149.508 201.216 149.446C201.812 149.428 202.392 149.646 202.828 150.053C203.264 150.46 203.522 151.023 203.546 151.619C203.569 152.215 203.356 152.796 202.953 153.236C202.55 153.676 201.989 153.939 201.393 153.967C200.265 154.01 199.15 154.23 198.09 154.62C194.53 155.926 192.798 158.975 190.963 162.206C188.229 167.019 184.826 173.001 174.554 171.378C161.72 169.338 153.102 174.274 148.949 186.045C148.793 186.487 148.504 186.869 148.123 187.139C147.741 187.409 147.284 187.554 146.817 187.554Z" fill="white"/>
<path d="M158.22 197.309C157.823 197.308 157.433 197.203 157.09 197.004C156.747 196.804 156.462 196.518 156.264 196.174C156.066 195.83 155.963 195.44 155.963 195.043C155.964 194.646 156.069 194.256 156.268 193.913C161.894 184.26 171.535 180.216 184.136 182.22C191.316 183.361 193.24 179.971 195.902 175.28C197.888 171.784 200.138 167.824 204.924 165.868C205.48 165.641 206.103 165.644 206.656 165.876C207.209 166.108 207.647 166.551 207.874 167.106C208.101 167.661 208.098 168.284 207.866 168.838C207.634 169.391 207.191 169.829 206.636 170.056C203.299 171.419 201.616 174.38 199.836 177.515C197.102 182.328 193.698 188.321 183.424 186.688C172.668 184.98 164.846 188.177 160.174 196.191C159.974 196.532 159.689 196.815 159.346 197.011C159.003 197.207 158.615 197.31 158.22 197.309Z" fill="white"/>
<g opacity="0.3">
<path fill-rule="evenodd" clip-rule="evenodd" d="M186.425 213.026C186.208 212.913 186.001 212.781 185.807 212.633C186.716 219.548 189.13 220.866 193.047 216.587C193.073 214.409 192.729 212.618 192.017 211.214C191.88 211.483 191.714 211.737 191.522 211.97C191.361 211.316 190.953 210.749 190.383 210.389C189.813 210.03 189.126 209.905 188.466 210.042C187.806 210.179 187.225 210.566 186.845 211.122C186.464 211.679 186.315 212.361 186.428 213.026M110.374 168.329C106.749 162.409 103.609 155.77 100.953 148.412C100.519 155.023 100.964 161.335 102.287 167.349C103.598 165.415 105.655 164.844 108.605 167.391C109.268 167.713 109.847 168.024 110.365 168.329H110.374ZM104.017 176.292C105.61 179.278 107.311 182.114 109.084 184.814C138.334 239.58 214.05 241.251 224.674 191.637C223.615 191.665 222.496 191.108 221.316 189.966C217.158 188.116 217.852 185.023 223.399 180.687C224.239 180.655 225.079 180.732 225.898 180.918C225.929 179.614 225.935 178.291 225.888 176.931C226.39 175.961 226.89 174.961 227.389 173.931C225.819 163.104 222.934 153.43 218.734 144.909V144.899C214.896 137.111 209.96 130.285 203.926 124.42C209.877 134.622 213.291 144.338 214.168 153.568C212.127 153.618 210.149 154.286 208.495 155.484C211.002 155.349 212.945 155.415 214.325 155.685C214.358 156.296 214.379 156.905 214.389 157.511C217.929 160.665 217.864 162.382 214.196 162.662L214.164 163.003L210.081 162.534C210.959 164.239 212.208 165.271 213.828 165.63C212.169 176.151 206.882 185.976 197.967 195.105C192.751 198.623 186.719 201.17 180.061 202.558C179.916 201.924 179.728 201.3 179.499 200.691C156.614 199.039 141.357 185.87 133.728 161.183C135.136 179.401 142.197 192.068 154.913 199.182H154.906C159.353 201.899 158.8 202.651 153.247 201.438L152.761 201.299C152.519 200.61 152.009 199.932 151.233 199.267C151.071 201.45 151.141 202.744 151.443 203.148C151.302 203.81 150.997 204.425 150.557 204.939C150.117 205.452 149.556 205.848 148.924 206.089C148.292 206.33 147.61 206.409 146.94 206.319C146.27 206.229 145.633 205.973 145.087 205.573C144.541 205.174 144.104 204.645 143.815 204.033C143.526 203.422 143.395 202.748 143.434 202.073C143.472 201.398 143.678 200.743 144.035 200.168C144.391 199.593 144.885 199.117 145.473 198.782L144.898 198.548C145.747 197.819 146.556 197.045 147.324 196.231C144.984 195.998 143.061 196.275 141.555 197.063C136.55 194.694 131.848 191.734 127.548 188.245C127.745 184.584 126.863 182.419 124.902 181.749C125.953 183.724 126.2 185.509 125.643 187.103L125.427 187.38C121.673 189.727 120.4 187.872 121.651 182.542C118.968 180.547 117.245 178.102 115.222 175.425C114.598 175.444 113.974 175.422 113.353 175.36C113.219 175.658 113.082 175.953 112.959 176.248C109.75 177.178 107.162 177.35 105.196 176.763L105.494 177.5C104.983 177.099 104.496 176.704 104.008 176.292H104.017Z" fill="#620504"/>
</g>
<path d="M147.308 196.231C147.604 196.642 141.971 203.692 145.685 205.003C150.58 206.732 150.264 199.341 151.222 199.269C152.502 199.134 152.545 211.107 144.53 208.275C142.893 207.695 141.573 206.422 141.168 204.566C140.452 201.302 145.681 195.227 147.308 196.231Z" fill="#620504"/>
<path d="M208.489 155.487C209.365 155.288 216.114 153.762 218.265 157.294C218.908 158.328 219.223 159.533 219.167 160.75C218.803 166.936 210.282 163.997 210.07 162.537C210.252 161.4 215.535 163.399 215.7 160.547C215.943 156.576 208.735 156.17 208.484 155.487" fill="#620504"/>
<path d="M184.096 119.199C183.601 119.202 183.114 119.083 182.676 118.853C180.637 117.788 180.199 114.902 181.213 109.204C181.288 108.783 181.527 108.408 181.879 108.162C182.23 107.917 182.664 107.821 183.086 107.896C183.508 107.971 183.883 108.211 184.128 108.562C184.374 108.913 184.47 109.348 184.395 109.77C183.582 114.335 184.031 115.656 184.187 115.956C184.516 115.912 185.786 115.534 188.84 112.49C188.99 112.341 189.169 112.222 189.365 112.141C189.561 112.06 189.771 112.019 189.984 112.019C190.196 112.019 190.406 112.061 190.602 112.143C190.798 112.224 190.976 112.344 191.125 112.494C191.275 112.644 191.394 112.823 191.475 113.019C191.556 113.215 191.597 113.425 191.597 113.637C191.597 113.85 191.554 114.06 191.473 114.256C191.391 114.452 191.272 114.63 191.122 114.779C188.118 117.774 185.876 119.199 184.096 119.199Z" fill="#620504"/>
<path d="M229.617 179.196C231.139 179.375 232.116 179.852 231.936 181.379C231.757 182.906 230.602 184.58 229.077 184.399C224.71 180.239 219.616 185.816 218.745 185.33C219.525 179.246 224.237 178.561 229.617 179.201" fill="#620504"/>
<path d="M218.984 188.738C219.469 188.036 223.587 190.218 226.747 189.334C227.45 189.152 228.197 189.253 228.827 189.615C229.457 189.978 229.919 190.573 230.115 191.272C230.312 191.972 230.226 192.72 229.876 193.357C229.527 193.994 228.942 194.469 228.246 194.679C223.166 194.073 218.775 189.737 218.986 188.736" fill="#620504"/>
<path d="M101.916 170.77C101.213 170.986 100.453 170.914 99.8026 170.57C99.1527 170.226 98.6662 169.637 98.4502 168.934C98.2342 168.231 98.3063 167.471 98.6507 166.821C98.9951 166.171 99.5836 165.685 100.287 165.468C107.098 163.359 111.489 168.244 111.142 171.514C110.679 171.831 107.913 168.912 101.916 170.77Z" fill="#620504"/>
<path d="M100.478 177.983C99.7608 177.813 99.1401 177.365 98.7528 176.738C98.3655 176.11 98.2434 175.354 98.4132 174.637C98.5831 173.919 99.031 173.299 99.6585 172.911C100.286 172.524 101.042 172.402 101.759 172.572C104.526 174.698 112.928 174.249 113.308 175.704C112.772 177.794 103.195 178.628 100.478 177.983Z" fill="#620504"/>
<path d="M137.547 98.7425C137.684 98.0235 138.099 97.3877 138.703 96.9739C139.307 96.5601 140.05 96.402 140.77 96.5339C141.49 96.6659 142.128 97.0773 142.546 97.6784C142.963 98.2794 143.127 99.0212 142.999 99.742C142.365 103.198 137.884 111.872 135.418 111.539C135.484 110.626 136.685 103.45 137.547 98.7425Z" fill="#620504"/>
<path d="M127.998 101.312C128.092 100.958 128.255 100.626 128.478 100.335C128.701 100.044 128.979 99.8004 129.296 99.6174C129.613 99.4344 129.963 99.316 130.327 99.2688C130.69 99.2217 131.059 99.2468 131.412 99.3427C131.766 99.4386 132.097 99.6034 132.386 99.8277C132.676 100.052 132.918 100.331 133.099 100.649C133.28 100.968 133.397 101.319 133.442 101.682C133.487 102.046 133.46 102.414 133.362 102.767C132.448 106.143 131.648 113.105 128.974 113.7C127.444 112.087 127.187 104.299 128.003 101.313" fill="#620504"/>
<path fill-rule="evenodd" clip-rule="evenodd" d="M200.917 108.021V108.011L318.703 2.58606H339.995L342.664 19.8868L218.853 127.305C213.74 119.972 207.677 113.424 200.917 108.021Z" fill="#F8BF25"/>
<path d="M218.853 129.889C218.31 129.891 217.78 129.721 217.339 129.404C217.102 129.232 216.895 129.022 216.727 128.782C211.705 121.576 205.842 115.272 199.302 110.044C198.823 109.66 198.496 109.118 198.379 108.516V108.507C198.294 108.068 198.324 107.614 198.467 107.19C198.61 106.766 198.861 106.386 199.194 106.088L316.982 0.663507C317.455 0.238984 318.069 0.00441426 318.705 0.00485291H339.999C340.617 0.00491818 341.214 0.225968 341.682 0.628C342.151 1.03003 342.46 1.58649 342.554 2.19671L345.215 19.4974C345.282 19.9293 345.238 20.371 345.088 20.7813C344.937 21.1916 344.685 21.557 344.355 21.8433L220.547 129.257C220.077 129.666 219.475 129.89 218.853 129.889ZM204.872 107.935C210.25 112.562 215.089 117.78 219.298 123.491L339.885 18.8643L337.778 5.16608H319.69L204.872 107.935Z" fill="#620504"/>
<g opacity="0.8">
<path fill-rule="evenodd" clip-rule="evenodd" d="M202.561 106.538L318.703 2.58606H336.579L332.533 8.49084L323.094 7.86009L205.454 111.906L202.561 106.538Z" fill="white"/>
</g>
<path d="M209.8 118.768C209.274 118.767 208.761 118.606 208.329 118.306C207.896 118.006 207.566 117.581 207.381 117.089C207.197 116.596 207.167 116.059 207.296 115.548C207.425 115.038 207.706 114.58 208.102 114.233L338.3 0.638015C338.553 0.400064 338.852 0.215652 339.178 0.0958091C339.505 -0.0240341 339.852 -0.0768497 340.199 -0.0594853C340.546 -0.042121 340.886 0.045069 341.199 0.196873C341.512 0.348678 341.791 0.561983 342.019 0.824033C342.248 1.08608 342.421 1.3915 342.529 1.72203C342.636 2.05255 342.676 2.40141 342.646 2.74774C342.616 3.09407 342.516 3.43076 342.353 3.73769C342.19 4.04462 341.966 4.31549 341.696 4.5341L211.499 118.13C211.029 118.541 210.425 118.768 209.8 118.768Z" fill="#620504"/>
<path fill-rule="evenodd" clip-rule="evenodd" d="M89.7641 217.777L82.5505 216.398L3.81118 285.376L2.26221 293.524L8.97119 297.738L15.0713 292.526L91.5387 227.759L89.7641 217.777Z" fill="#F8BF25"/>
<path d="M8.9712 300C8.54558 300 8.12853 299.88 7.76792 299.654L1.05893 295.439C0.673546 295.197 0.370116 294.845 0.188323 294.428C0.00652964 294.011 -0.0451557 293.549 0.0400318 293.102L1.58901 284.954C1.68186 284.459 1.9381 284.009 2.3168 283.676L81.0561 214.697C81.3147 214.47 81.6216 214.306 81.9535 214.215C82.2854 214.125 82.6336 214.112 82.9714 214.177L90.185 215.556C90.6342 215.642 91.0469 215.861 91.3687 216.186C91.6905 216.511 91.9062 216.926 91.9875 217.376L93.7621 227.357C93.8313 227.747 93.7971 228.148 93.6628 228.52C93.5285 228.892 93.2988 229.223 92.9967 229.479L16.5329 294.252L10.4413 299.458C10.0315 299.808 9.51018 300 8.9712 300ZM4.77308 292.43L8.7662 294.938L13.6011 290.807L89.0836 226.874L87.81 219.709L83.2104 218.83L5.8878 286.565L4.77308 292.43Z" fill="#620504"/>
<path d="M13.5004 295.485C13.2039 295.485 12.913 295.404 12.6596 295.25C12.4063 295.095 12.2003 294.874 12.0643 294.611L9.06095 288.808L3.30536 286.908C2.89825 286.774 2.5611 286.484 2.36809 286.101C2.17507 285.718 2.142 285.275 2.27615 284.868C2.4103 284.46 2.70068 284.123 3.08342 283.93C3.46615 283.737 3.90988 283.704 4.31699 283.838L10.6997 285.942C11.1011 286.074 11.4346 286.358 11.6288 286.734L14.9342 293.122C15.0611 293.369 15.1226 293.644 15.1129 293.92C15.1032 294.197 15.0225 294.467 14.8786 294.704C14.7347 294.941 14.5324 295.137 14.2911 295.273C14.0498 295.409 13.7775 295.481 13.5004 295.482V295.485Z" fill="#620504"/>
<path d="M10.5165 289.718C10.1877 289.718 9.86667 289.618 9.59619 289.431C9.32572 289.244 9.11872 288.979 9.00284 288.671C8.88696 288.364 8.86772 288.028 8.94768 287.709C9.02763 287.39 9.20299 287.103 9.45032 286.886L88.6991 217.468C88.8566 217.317 89.0429 217.199 89.247 217.123C89.4511 217.046 89.6686 217.011 89.8865 217.02C90.1044 217.03 90.3181 217.083 90.5147 217.177C90.7114 217.271 90.887 217.405 91.0309 217.568C91.1748 217.732 91.284 217.924 91.3519 218.131C91.4199 218.338 91.4453 218.557 91.4264 218.774C91.4075 218.991 91.3449 219.203 91.2422 219.395C91.1396 219.587 90.999 219.757 90.8291 219.894L11.5803 289.312C11.2867 289.572 10.9086 289.716 10.5165 289.718Z" fill="#620504"/>
<path d="M103.906 239.383C103.506 239.382 103.112 239.289 102.754 239.11C93.8834 234.683 89.1539 229.832 88.2976 224.277C87.5698 219.586 89.7592 214.74 94.7894 209.873C95.2855 209.413 95.9418 209.166 96.6179 209.185C97.2939 209.203 97.9359 209.486 98.4061 209.972C98.8763 210.458 99.1374 211.109 99.1334 211.785C99.1294 212.461 98.8606 213.109 98.3847 213.59C94.6245 217.221 92.9554 220.552 93.4115 223.49C93.9852 227.212 97.8995 230.911 105.065 234.483C105.586 234.744 106.004 235.173 106.25 235.7C106.497 236.228 106.559 236.823 106.425 237.39C106.291 237.957 105.97 238.463 105.513 238.824C105.057 239.186 104.491 239.382 103.909 239.383H103.906Z" fill="#620504"/>
<path d="M86.8917 219.736C81.8955 219.736 76.2005 217.059 69.8579 211.713C69.59 211.497 69.3681 211.23 69.205 210.927C69.0418 210.623 68.9409 210.291 68.908 209.948C68.8751 209.606 68.9109 209.26 69.0133 208.931C69.1158 208.603 69.2828 208.298 69.5046 208.035C69.7264 207.771 69.9985 207.555 70.305 207.398C70.6114 207.242 70.9461 207.148 71.2893 207.122C71.6326 207.096 71.9775 207.14 72.3038 207.249C72.6302 207.358 72.9314 207.532 73.1899 207.759C85.8146 218.4 90.9649 213.703 92.6594 212.161C92.9101 211.931 93.2036 211.754 93.5231 211.638C93.8425 211.522 94.1817 211.47 94.5212 211.485C94.8607 211.501 95.1938 211.583 95.5016 211.727C95.8093 211.871 96.0856 212.075 96.3146 212.326C96.5436 212.577 96.7208 212.871 96.8362 213.19C96.9515 213.51 97.0027 213.849 96.9868 214.189C96.9708 214.528 96.8881 214.861 96.7434 215.169C96.5986 215.476 96.3946 215.752 96.1431 215.981C93.3969 218.485 90.3132 219.737 86.8917 219.736Z" fill="#620504"/>
<path d="M68.5927 226.188C67.7589 226.195 66.9295 226.067 66.1365 225.809C64.3267 225.21 62.9027 223.899 62.0123 222.018C61.7204 221.397 61.6869 220.686 61.9191 220.041C62.1514 219.396 62.6304 218.87 63.2508 218.578C63.8712 218.286 64.5821 218.252 65.2273 218.484C65.8724 218.717 66.3988 219.196 66.6908 219.816C67.0547 220.584 67.4501 220.8 67.757 220.9C68.3307 221.091 70.1017 221.3 74.1385 219.14C74.7431 218.817 75.4514 218.747 76.1076 218.946C76.7637 219.145 77.314 219.597 77.6373 220.201C77.9606 220.806 78.0305 221.514 77.8316 222.17C77.6326 222.826 77.1812 223.377 76.5766 223.7C73.4738 225.363 70.8343 226.188 68.5927 226.188Z" fill="#620504"/>
<path d="M90.0467 249.806C89.6451 249.806 89.2489 249.713 88.8897 249.534C88.5304 249.355 88.218 249.094 87.9774 248.772C84.1468 243.669 81.3181 235.588 89.587 226.064C89.81 225.808 90.0813 225.598 90.3854 225.446C90.6895 225.295 91.0205 225.205 91.3594 225.181C91.6983 225.158 92.0386 225.201 92.3607 225.309C92.6828 225.417 92.9805 225.588 93.2368 225.811C93.4931 226.034 93.703 226.305 93.8544 226.609C94.0059 226.913 94.096 227.244 94.1195 227.583C94.143 227.922 94.0996 228.262 93.9916 228.584C93.8837 228.906 93.7134 229.204 93.4904 229.46C88.5341 235.17 88.095 240.323 92.1124 245.674C92.4001 246.058 92.5755 246.514 92.6189 246.992C92.6622 247.47 92.5719 247.95 92.3579 248.379C92.144 248.809 91.8148 249.17 91.4073 249.423C90.9998 249.676 90.53 249.81 90.0503 249.812L90.0467 249.806Z" fill="#620504"/>
<path d="M185.764 209.475C186.249 209.616 186.191 218.641 189.917 217.371C194.832 215.698 190.009 210.093 190.719 209.44C191.64 208.541 199.089 217.919 191.036 220.655C189.392 221.213 187.568 221.033 186.1 219.826C183.518 217.703 183.86 209.691 185.764 209.475Z" fill="#620504"/>
<path d="M124.885 181.743C124.601 181.908 126.027 187.582 123.484 187.357C120.13 187.06 122.305 182.785 121.758 182.483C121.04 182.058 117.794 189.113 123.285 189.598C124.407 189.695 125.529 189.301 126.266 188.314C127.565 186.578 126.117 181.585 124.885 181.743Z" fill="#620504"/>
<path d="M125.688 142.373C124.812 142.574 118.063 144.099 115.913 140.566C115.269 139.532 114.953 138.326 115.009 137.109C115.379 130.923 123.894 133.863 124.106 135.325C123.923 136.461 118.639 134.462 118.473 137.314C118.23 141.285 125.438 141.69 125.69 142.373" fill="#620504"/>
<g opacity="0.3">
<path d="M125.348 142.449C125.185 143.362 112.349 145.966 112.885 136.927C113.249 130.741 122.63 133.183 122.831 134.644C122.649 135.781 116.507 134.28 116.339 137.131C116.103 141.102 125.088 141.764 125.342 142.449" fill="#620504"/>
</g>
<g opacity="0.3">
<mask id="mask0_6_162" style="mask-type:luminance" maskUnits="userSpaceOnUse" x="181" y="108" width="10" height="12">
<path d="M190.873 108.991H181.144V119.25H190.873V108.991Z" fill="white"/>
</mask>
<g mask="url(#mask0_6_162)">
<path d="M183.424 120.873C182.863 120.877 182.309 120.742 181.811 120.482C179.455 119.25 178.952 115.619 180.182 108.708C180.219 108.499 180.297 108.3 180.411 108.121C180.526 107.942 180.674 107.788 180.848 107.666C181.022 107.545 181.218 107.459 181.426 107.413C181.633 107.368 181.847 107.364 182.056 107.401C182.265 107.438 182.464 107.516 182.643 107.63C182.822 107.745 182.977 107.893 183.098 108.067C183.219 108.241 183.305 108.437 183.351 108.644C183.396 108.852 183.401 109.066 183.364 109.275C182.038 116.726 183.296 117.612 183.309 117.618C183.322 117.624 184.779 118.045 189.738 113.109C190.044 112.819 190.451 112.661 190.873 112.667C191.294 112.673 191.697 112.844 191.994 113.143C192.292 113.441 192.461 113.844 192.465 114.266C192.47 114.687 192.31 115.094 192.019 115.399C188.289 119.11 185.548 120.873 183.424 120.873Z" fill="#620504"/>
</g>
</g>
<g opacity="0.3">
<path fill-rule="evenodd" clip-rule="evenodd" d="M187.747 108.021C188.498 108.172 189.198 108.51 189.783 109.003C190.369 109.496 190.821 110.128 191.098 110.842C191.375 111.555 191.469 112.327 191.37 113.086C191.271 113.845 190.982 114.567 190.531 115.185C190.08 115.803 189.481 116.298 188.788 116.624C188.096 116.95 187.332 117.097 186.568 117.051C185.804 117.005 185.064 116.767 184.416 116.36C183.768 115.953 183.232 115.389 182.859 114.721C187.117 113.699 188.746 111.465 187.747 108.021Z" fill="#620504"/>
</g>
<g opacity="0.3">
<path fill-rule="evenodd" clip-rule="evenodd" d="M144.843 103.357C142.043 102.033 138.901 104.761 135.418 111.539C140.73 110.391 143.872 107.664 144.843 103.357Z" fill="#620504"/>
</g>
<g opacity="0.3">
<path fill-rule="evenodd" clip-rule="evenodd" d="M126.921 108.741C129.466 108.639 130.15 110.292 128.974 113.699C127.147 112.148 126.463 110.496 126.921 108.741Z" fill="#620504"/>
</g>
<g opacity="0.6">
<path fill-rule="evenodd" clip-rule="evenodd" d="M138.2 143.135C145.43 125.879 165.871 120.992 183.861 132.218C195.855 139.705 203.727 152.468 205.5 165.259C204.702 166.214 203.856 167.144 202.96 168.049C198.562 149.862 184.906 136.835 171.174 133.491C171.732 133.999 172.037 134.565 172.009 135.151C171.924 137.03 168.469 138.395 164.299 138.201C160.129 138.007 156.816 136.329 156.9 134.451C156.913 134.203 156.982 133.961 157.101 133.743C147.988 136.621 140.499 145.338 138.066 161.591C137.194 160.278 136.397 158.917 135.678 157.515C135.512 152.535 136.31 147.634 138.196 143.133" fill="white"/>
</g>
<path d="M177.575 203.334C170.484 203.334 163.095 201.151 156.313 196.911C137.324 185.057 128.128 160.486 135.814 142.139C139.302 133.809 145.836 127.755 154.21 125.091C163.939 121.998 175.243 123.799 185.228 130.034C204.217 141.887 213.413 166.457 205.727 184.805C202.239 193.134 195.706 199.189 187.332 201.853C184.176 202.846 180.884 203.345 177.575 203.334ZM163.973 128.776C161.194 128.765 158.429 129.184 155.778 130.017C148.874 132.212 143.474 137.227 140.584 144.141C133.834 160.25 142.119 181.958 159.052 192.529C167.749 197.958 177.489 199.564 185.764 196.928C192.67 194.733 198.065 189.718 200.959 182.81C207.708 166.7 199.423 144.993 182.49 134.424C176.538 130.701 170.098 128.776 163.973 128.776Z" fill="#620504"/>
<g opacity="0.3">
<path fill-rule="evenodd" clip-rule="evenodd" d="M136.94 164.276C147.348 184.638 172.581 207.865 194.728 188.85C200.759 183.673 203.379 175.523 203.064 167.582C203.814 168.177 204.524 168.821 205.189 169.511C205.151 165.895 204.494 162.081 203.108 158.162C208.021 185.541 169.394 202.345 136.94 164.276Z" fill="#620504"/>
</g>
<g opacity="0.5">
<path fill-rule="evenodd" clip-rule="evenodd" d="M138.852 281.272C164.411 263.176 183.579 248.332 195.091 237.828C160.931 243.24 129.663 230.295 108.526 198.995C105.597 206.057 102.311 212.496 98.6698 218.312C95.8104 223.668 98.3111 229.176 106.172 234.835C98.7049 233.08 94.4943 230.062 93.5401 225.784C91.0367 229.12 88.308 232.281 85.3731 235.245C85.8526 235.316 86.3205 235.45 86.7644 235.645C87.1097 236.554 87.4202 237.42 87.6959 238.246C87.6151 235.609 88.8281 232.903 91.3349 230.128C96.7351 232.715 100.838 235.883 103.643 239.631C98.6115 238.844 94.916 237.276 92.5563 234.925C91.3927 238.541 91.4077 242.449 92.6012 246.647C90.8925 245.186 89.631 243.702 88.8167 242.194C89.5769 245.627 89.4515 248.045 88.4407 249.449C84.2923 247.118 82.379 243.241 82.7009 237.82C77.4951 242.635 71.6555 246.716 65.3444 249.95C84.9861 271.556 111.482 282.357 138.851 281.273" fill="#620504"/>
</g>
<g opacity="0.3">
<path fill-rule="evenodd" clip-rule="evenodd" d="M57.6492 189.231C60.3178 192.627 66.5659 185.479 64.414 183.166C60.3299 178.772 55.3761 186.332 57.6492 189.231ZM88.0065 161.211C82.6584 153.745 62.17 174.699 67.6672 180.012C72.7569 184.934 90.1413 164.192 88.0065 161.215V161.211Z" fill="white"/>
</g>
<g opacity="0.3">
<path fill-rule="evenodd" clip-rule="evenodd" d="M342.658 19.8868L340.979 8.97845L214.435 121.447L219.233 126.976L342.658 19.8868Z" fill="#620504"/>
</g>
<g opacity="0.3">
<path fill-rule="evenodd" clip-rule="evenodd" d="M91.5387 227.759L90.652 222.768L11.846 290.672L3.0373 289.45L2.26221 293.524L8.97119 297.738L91.5387 227.759Z" fill="#620504"/>
</g>
<path d="M218.853 129.889C218.31 129.891 217.78 129.721 217.339 129.404C217.102 129.232 216.895 129.022 216.727 128.782C211.705 121.576 205.842 115.272 199.302 110.044C198.823 109.66 198.496 109.118 198.379 108.516V108.507C198.294 108.068 198.324 107.614 198.467 107.19C198.61 106.766 198.861 106.386 199.194 106.088L316.982 0.663507C317.455 0.238984 318.069 0.00441426 318.705 0.00485291H339.999C340.617 0.00491818 341.214 0.225968 341.682 0.628C342.151 1.03003 342.46 1.58649 342.554 2.19671L345.215 19.4974C345.282 19.9293 345.238 20.371 345.088 20.7813C344.937 21.1916 344.685 21.557 344.355 21.8433L220.547 129.257C220.077 129.666 219.475 129.89 218.853 129.889ZM204.872 107.935C210.25 112.562 215.089 117.78 219.298 123.491L339.885 18.8643L337.778 5.16608H319.69L204.872 107.935Z" fill="#620504"/>
</g>
<defs>
<clipPath id="clip0_6_162">
<rect width="345.243" height="300" fill="white"/>
</clipPath>
</defs>
</svg>
